<svg width="44" height="44" viewBox="0 0 44 44" fill="none" xmlns="http://www.w3.org/2000/svg">
<g clip-path="url(#clip0_558_647)">
<path d="M6.97845 29.1328C6.64234 29.3161 6.32151 29.3161 6.01595 29.1328C5.71039 28.9494 5.55762 28.6744 5.55762 28.3077V14.9244C5.55762 14.5577 5.71039 14.2827 6.01595 14.0994C6.32151 13.9161 6.64234 13.9161 6.97845 14.0994L14.9535 18.6827C15.1368 18.805 15.2743 18.973 15.366 19.1869C15.4576 19.4008 15.4729 19.6147 15.4118 19.8286C15.259 20.4397 15.1826 21.0355 15.1826 21.6161C15.1826 22.1966 15.259 22.7925 15.4118 23.4036C15.4729 23.6175 15.4653 23.8314 15.3889 24.0452C15.3125 24.2591 15.1673 24.4119 14.9535 24.5036L6.97845 29.1328ZM20.0868 39.8119L8.53678 33.2577C8.20067 33.0744 8.04026 32.7918 8.05553 32.4098C8.07081 32.0279 8.24651 31.7452 8.58262 31.5619L16.466 27.0244C16.6493 26.9022 16.8479 26.864 17.0618 26.9098C17.2757 26.9557 17.459 27.055 17.6118 27.2078C18.0396 27.6355 18.5132 27.9946 19.0326 28.2848C19.5521 28.5751 20.1173 28.8119 20.7284 28.9952C20.9423 29.0564 21.118 29.1709 21.2555 29.339C21.393 29.5071 21.4771 29.698 21.5076 29.9119V38.9869C21.5076 39.3536 21.3548 39.6286 21.0493 39.8119C20.7437 39.9952 20.4229 39.9952 20.0868 39.8119ZM25.7701 39.8577C25.434 40.0411 25.1132 40.0334 24.8076 39.8348C24.5021 39.6362 24.3493 39.3536 24.3493 38.9869V29.9577C24.3493 29.7133 24.418 29.5071 24.5555 29.339C24.693 29.1709 24.8687 29.0564 25.0826 28.9952C25.6937 28.8119 26.259 28.5751 26.7785 28.2848C27.2979 27.9946 27.7715 27.6355 28.1993 27.2078C28.3521 27.055 28.5354 26.9557 28.7493 26.9098C28.9632 26.864 29.1618 26.9022 29.3451 27.0244L37.2743 31.6078C37.6104 31.7911 37.7861 32.0661 37.8014 32.4327C37.8166 32.7994 37.6562 33.0744 37.3201 33.2577L25.7701 39.8577Z" fill="white"/>
<path d="M20.086 3.41999L8.53596 9.97415C8.19985 10.1575 8.03943 10.4401 8.05471 10.8221C8.06999 11.204 8.24568 11.4867 8.58179 11.67L16.4651 16.2075C16.6485 16.3297 16.8471 16.3679 17.061 16.3221C17.2748 16.2762 17.4582 16.1769 17.611 16.0242C18.0387 15.5964 18.5123 15.2373 19.0318 14.9471C19.5512 14.6568 20.1165 14.42 20.7276 14.2367C20.9415 14.1755 21.1172 14.061 21.2547 13.8929C21.3922 13.7248 21.4762 13.5339 21.5068 13.32V4.24499C21.5068 3.87832 21.354 3.60332 21.0485 3.41999C20.7429 3.23665 20.4221 3.23665 20.086 3.41999ZM25.7693 3.37415C25.4332 3.19082 25.1123 3.19846 24.8068 3.39707C24.5012 3.59568 24.3485 3.87832 24.3485 4.24499V13.2742C24.3485 13.5186 24.4172 13.7248 24.5547 13.8929C24.6922 14.061 24.8679 14.1755 25.0818 14.2367C25.6929 14.42 26.2582 14.6568 26.7776 14.9471C27.2971 15.2373 27.7707 15.5964 28.1985 16.0242C28.3512 16.1769 28.5346 16.2762 28.7485 16.3221C28.9623 16.3679 29.161 16.3297 29.3443 16.2075L37.2735 11.6242C37.6096 11.4408 37.7853 11.1658 37.8005 10.7992C37.8158 10.4325 37.6554 10.1575 37.3193 9.97415L25.7693 3.37415Z" fill="white"/>
</g>
<defs>
<clipPath id="clip0_558_647">
<rect width="44" height="44" fill="white"/>
</clipPath>
</defs>
</svg>
