<svg width="12" height="12" viewBox="0 0 12 12" fill="none" xmlns="http://www.w3.org/2000/svg">
<g clip-path="url(#clip0_483_1350)">
<path d="M9.82252 2.18354C9.58589 1.94691 9.20364 1.94691 8.967 2.18354L6 5.14448L3.03299 2.17747C2.79636 1.94084 2.41411 1.94084 2.17747 2.17747C1.94084 2.41411 1.94084 2.79636 2.17747 3.03299L5.14448 6L2.17747 8.96701C1.94084 9.20364 1.94084 9.58589 2.17747 9.82252C2.41411 10.0592 2.79636 10.0592 3.03299 9.82252L6 6.85552L8.967 9.82252C9.20364 10.0592 9.58589 10.0592 9.82252 9.82252C10.0592 9.58589 10.0592 9.20364 9.82252 8.96701L6.85552 6L9.82252 3.03299C10.0531 2.80243 10.0531 2.41411 9.82252 2.18354Z" fill="#1E7ADF"/>
</g>
<defs>
<clipPath id="clip0_483_1350">
<rect width="12" height="12" fill="white"/>
</clipPath>
</defs>
</svg>
