<svg width="103" height="32" viewBox="0 0 103 32" fill="none" xmlns="http://www.w3.org/2000/svg">
<g clip-path="url(#clip0_623_635)">
<path d="M5.07533 21.1871C4.83088 21.3205 4.59755 21.3205 4.37533 21.1871C4.1531 21.0538 4.04199 20.8538 4.04199 20.5871V10.8538C4.04199 10.5871 4.1531 10.3871 4.37533 10.2538C4.59755 10.1205 4.83088 10.1205 5.07533 10.2538L10.8753 13.5871C11.0087 13.676 11.1087 13.7983 11.1753 13.9538C11.242 14.1094 11.2531 14.2649 11.2087 14.4205C11.0975 14.8649 11.042 15.2983 11.042 15.7205C11.042 16.1427 11.0975 16.576 11.2087 17.0205C11.2531 17.176 11.2475 17.3316 11.192 17.4871C11.1364 17.6427 11.0309 17.7538 10.8753 17.8205L5.07533 21.1871ZM14.6087 28.9538L6.20866 24.1871C5.96421 24.0538 5.84755 23.8483 5.85866 23.5705C5.86977 23.2927 5.99755 23.0871 6.24199 22.9538L11.9753 19.6538C12.1087 19.5649 12.2531 19.5371 12.4087 19.5705C12.5642 19.6038 12.6975 19.676 12.8087 19.7871C13.1198 20.0983 13.4642 20.3594 13.842 20.5705C14.2198 20.7816 14.6309 20.9538 15.0753 21.0871C15.2309 21.1316 15.3587 21.2149 15.4587 21.3371C15.5587 21.4594 15.6198 21.5983 15.642 21.7538V28.3538C15.642 28.6205 15.5309 28.8205 15.3087 28.9538C15.0864 29.0871 14.8531 29.0871 14.6087 28.9538ZM18.742 28.9871C18.4975 29.1205 18.2642 29.1149 18.042 28.9705C17.8198 28.826 17.7087 28.6205 17.7087 28.3538V21.7871C17.7087 21.6094 17.7587 21.4594 17.8587 21.3371C17.9587 21.2149 18.0864 21.1316 18.242 21.0871C18.6864 20.9538 19.0976 20.7816 19.4753 20.5705C19.8531 20.3594 20.1975 20.0983 20.5087 19.7871C20.6198 19.676 20.7531 19.6038 20.9087 19.5705C21.0642 19.5371 21.2087 19.5649 21.342 19.6538L27.1087 22.9871C27.3531 23.1205 27.4809 23.3205 27.492 23.5871C27.5031 23.8538 27.3864 24.0538 27.142 24.1871L18.742 28.9871Z" fill="white"/>
<path d="M14.6081 2.48731L6.20815 7.25398C5.9637 7.38731 5.84704 7.59286 5.85815 7.87064C5.86926 8.14842 5.99704 8.35398 6.24148 8.48731L11.9748 11.7873C12.1081 11.8762 12.2526 11.904 12.4081 11.8706C12.5637 11.8373 12.697 11.7651 12.8081 11.654C13.1193 11.3429 13.4637 11.0818 13.8415 10.8706C14.2193 10.6595 14.6304 10.4873 15.0748 10.354C15.2304 10.3095 15.3581 10.2262 15.4581 10.104C15.5581 9.98175 15.6193 9.84286 15.6415 9.68731V3.08731C15.6415 2.82064 15.5304 2.62064 15.3081 2.48731C15.0859 2.35397 14.8526 2.35397 14.6081 2.48731ZM18.7415 2.45397C18.497 2.32064 18.2637 2.3262 18.0415 2.47064C17.8193 2.61509 17.7081 2.82064 17.7081 3.08731V9.65398C17.7081 9.83175 17.7581 9.98175 17.8581 10.104C17.9581 10.2262 18.0859 10.3095 18.2415 10.354C18.6859 10.4873 19.097 10.6595 19.4748 10.8706C19.8526 11.0818 20.197 11.3429 20.5081 11.654C20.6193 11.7651 20.7526 11.8373 20.9081 11.8706C21.0637 11.904 21.2081 11.8762 21.3415 11.7873L27.1081 8.45397C27.3526 8.32064 27.4804 8.12064 27.4915 7.85398C27.5026 7.58731 27.3859 7.38731 27.1415 7.25398L18.7415 2.45397Z" fill="white"/>
</g>
<path d="M51.5391 7.87891V11.1133C49.9609 9.79297 48.3281 9.13281 46.6406 9.13281C44.7812 9.13281 43.2148 9.80078 41.9414 11.1367C40.6602 12.4648 40.0195 14.0898 40.0195 16.0117C40.0195 17.9102 40.6602 19.5117 41.9414 20.8164C43.2227 22.1211 44.793 22.7734 46.6523 22.7734C47.6133 22.7734 48.4297 22.6172 49.1016 22.3047C49.4766 22.1484 49.8633 21.9375 50.2617 21.6719C50.668 21.4062 51.0938 21.0859 51.5391 20.7109V24.0039C49.9766 24.8867 48.3359 25.3281 46.6172 25.3281C44.0312 25.3281 41.8242 24.4258 39.9961 22.6211C38.1758 20.8008 37.2656 18.6055 37.2656 16.0352C37.2656 13.7305 38.0273 11.6758 39.5508 9.87109C41.4258 7.66016 43.8516 6.55469 46.8281 6.55469C48.4531 6.55469 50.0234 6.99609 51.5391 7.87891ZM54.4922 13.5859H57.1289V14.6055C57.6133 14.0977 58.043 13.75 58.418 13.5625C58.8008 13.3672 59.2539 13.2695 59.7773 13.2695C60.4727 13.2695 61.1992 13.4961 61.957 13.9492L60.75 16.3633C60.25 16.0039 59.7617 15.8242 59.2852 15.8242C57.8477 15.8242 57.1289 16.9102 57.1289 19.082V25H54.4922V13.5859ZM62.7188 19.2109C62.7188 17.5625 63.3086 16.1602 64.4883 15.0039C65.668 13.8477 67.1055 13.2695 68.8008 13.2695C70.5039 13.2695 71.9492 13.8516 73.1367 15.0156C74.3086 16.1797 74.8945 17.6094 74.8945 19.3047C74.8945 21.0156 74.3047 22.4492 73.125 23.6055C71.9375 24.7539 70.4805 25.3281 68.7539 25.3281C67.043 25.3281 65.6094 24.7422 64.4531 23.5703C63.2969 22.4141 62.7188 20.9609 62.7188 19.2109ZM65.4141 19.2578C65.4141 20.3984 65.7188 21.3008 66.3281 21.9648C66.9531 22.6367 67.7773 22.9727 68.8008 22.9727C69.832 22.9727 70.6562 22.6406 71.2734 21.9766C71.8906 21.3125 72.1992 20.4258 72.1992 19.3164C72.1992 18.207 71.8906 17.3203 71.2734 16.6562C70.6484 15.9844 69.8242 15.6484 68.8008 15.6484C67.793 15.6484 66.9766 15.9844 66.3516 16.6562C65.7266 17.3281 65.4141 18.1953 65.4141 19.2578ZM80.332 5.20703V25H77.6953V5.20703H80.332ZM86.3086 13.5859V25H83.6719V13.5859H86.3086ZM83.2734 8.83984C83.2734 8.37891 83.4414 7.98047 83.7773 7.64453C84.1133 7.30859 84.5156 7.14062 84.9844 7.14062C85.4609 7.14062 85.8672 7.30859 86.2031 7.64453C86.5391 7.97266 86.707 8.375 86.707 8.85156C86.707 9.32812 86.5391 9.73438 86.2031 10.0703C85.875 10.4062 85.4727 10.5742 84.9961 10.5742C84.5195 10.5742 84.1133 10.4062 83.7773 10.0703C83.4414 9.73438 83.2734 9.32422 83.2734 8.83984ZM89.1094 19.2109C89.1094 17.5625 89.6992 16.1602 90.8789 15.0039C92.0586 13.8477 93.4961 13.2695 95.1914 13.2695C96.8945 13.2695 98.3398 13.8516 99.5273 15.0156C100.699 16.1797 101.285 17.6094 101.285 19.3047C101.285 21.0156 100.695 22.4492 99.5156 23.6055C98.3281 24.7539 96.8711 25.3281 95.1445 25.3281C93.4336 25.3281 92 24.7422 90.8438 23.5703C89.6875 22.4141 89.1094 20.9609 89.1094 19.2109ZM91.8047 19.2578C91.8047 20.3984 92.1094 21.3008 92.7188 21.9648C93.3438 22.6367 94.168 22.9727 95.1914 22.9727C96.2227 22.9727 97.0469 22.6406 97.6641 21.9766C98.2812 21.3125 98.5898 20.4258 98.5898 19.3164C98.5898 18.207 98.2812 17.3203 97.6641 16.6562C97.0391 15.9844 96.2148 15.6484 95.1914 15.6484C94.1836 15.6484 93.3672 15.9844 92.7422 16.6562C92.1172 17.3281 91.8047 18.1953 91.8047 19.2578Z" fill="white"/>
<defs>
<clipPath id="clip0_623_635">
<rect width="32" height="32" fill="white"/>
</clipPath>
</defs>
</svg>
