<svg width="107" height="40" viewBox="0 0 107 40" fill="none" xmlns="http://www.w3.org/2000/svg">
<path d="M20.0438 20.6826L9.96572 26.5068C9.78014 26.6129 9.5701 26.6687 9.35635 26.6687C9.1426 26.6687 8.93255 26.6129 8.74697 26.5068L5.51963 24.6482C5.33665 24.5398 5.18521 24.3855 5.08037 24.2004C4.97552 24.0154 4.92091 23.8062 4.92197 23.5935V19.8763C4.92211 19.6625 4.97849 19.4525 5.08545 19.2674C5.19241 19.0823 5.34619 18.9286 5.53135 18.8217L8.74932 16.9631C8.9349 16.857 9.14494 16.8012 9.35869 16.8012C9.57244 16.8012 9.78249 16.857 9.96807 16.9631L13.186 18.8217C13.3712 18.9286 13.525 19.0823 13.6319 19.2674C13.7389 19.4525 13.7953 19.6625 13.7954 19.8763V21.6599C13.7955 21.7132 13.8095 21.7654 13.836 21.8116C13.8626 21.8577 13.9008 21.8961 13.9467 21.9229C13.9927 21.9496 14.0449 21.9639 14.0982 21.9643C14.1514 21.9646 14.2038 21.951 14.2501 21.9248L15.9259 20.9568C16.0182 20.9032 16.0947 20.8263 16.1478 20.7337C16.2009 20.6411 16.2286 20.5362 16.2282 20.4295V18.4701C16.2281 18.2566 16.172 18.0468 16.0654 17.8617C15.9589 17.6767 15.8058 17.5228 15.6212 17.4154L9.95635 14.1529C9.77115 14.0457 9.56096 13.9893 9.34697 13.9893C9.13299 13.9893 8.92279 14.0457 8.7376 14.1529L3.08447 17.4154C2.89931 17.5223 2.74554 17.676 2.63857 17.8612C2.53161 18.0463 2.47523 18.2563 2.4751 18.4701V24.9998C2.47523 25.2136 2.53161 25.4236 2.63857 25.6087C2.74554 25.7938 2.89931 25.9476 3.08447 26.0545L8.7376 29.317C8.92279 29.4242 9.13299 29.4806 9.34697 29.4806C9.56096 29.4806 9.77115 29.4242 9.95635 29.317L20.0345 23.4927C20.2201 23.3867 20.4301 23.3309 20.6438 23.3309C20.8576 23.3309 21.0676 23.3867 21.2532 23.4927L24.4712 25.3513C24.6564 25.4582 24.8101 25.612 24.9171 25.7971C25.0241 25.9822 25.0804 26.1922 25.0806 26.406V30.1232C25.0804 30.337 25.0241 30.547 24.9171 30.7321C24.8101 30.9173 24.6564 31.071 24.4712 31.1779L21.2626 33.0365C21.077 33.1426 20.867 33.1983 20.6532 33.1983C20.4395 33.1983 20.2294 33.1426 20.0438 33.0365L16.8259 31.1779C16.6407 31.071 16.4869 30.9173 16.38 30.7321C16.273 30.547 16.2166 30.337 16.2165 30.1232V28.3373C16.2167 28.284 16.2029 28.2316 16.1763 28.1853C16.1498 28.1391 16.1115 28.1007 16.0653 28.0741C16.0192 28.0474 15.9668 28.0335 15.9135 28.0336C15.8602 28.0337 15.8079 28.0479 15.7618 28.0748L14.086 29.0404C13.9939 29.0941 13.9175 29.1711 13.8644 29.2637C13.8114 29.3562 13.7835 29.4611 13.7837 29.5677V31.5295C13.7838 31.743 13.84 31.9528 13.9465 32.1378C14.053 32.3229 14.2062 32.4768 14.3907 32.5842L20.0438 35.8467C20.229 35.9538 20.4392 36.0103 20.6532 36.0103C20.8672 36.0103 21.0774 35.9538 21.2626 35.8467L26.9157 32.5842C27.1009 32.4773 27.2547 32.3235 27.3616 32.1384C27.4686 31.9533 27.525 31.7433 27.5251 31.5295V24.9998C27.525 24.786 27.4686 24.576 27.3616 24.3908C27.2547 24.2057 27.1009 24.052 26.9157 23.9451L21.2626 20.6826C21.0774 20.5754 20.8672 20.5189 20.6532 20.5189C20.4392 20.5189 20.229 20.5754 20.0438 20.6826Z" fill="white"/>
<path d="M40.8457 26.6973H37.1445V24.7539H40.8457C41.4902 24.7539 42.0111 24.6497 42.4082 24.4414C42.8053 24.2331 43.0951 23.9466 43.2773 23.582C43.4661 23.2109 43.5605 22.7878 43.5605 22.3125C43.5605 21.8633 43.4661 21.4434 43.2773 21.0527C43.0951 20.6556 42.8053 20.3366 42.4082 20.0957C42.0111 19.8548 41.4902 19.7344 40.8457 19.7344H37.8965V32H35.4453V17.7812H40.8457C41.946 17.7812 42.8802 17.9766 43.6484 18.3672C44.4232 18.7513 45.0124 19.2852 45.416 19.9688C45.8197 20.6458 46.0215 21.4206 46.0215 22.293C46.0215 23.2109 45.8197 23.9987 45.416 24.6562C45.0124 25.3138 44.4232 25.8184 43.6484 26.1699C42.8802 26.5215 41.946 26.6973 40.8457 26.6973ZM47.3984 26.834V26.6094C47.3984 25.8477 47.5091 25.1413 47.7305 24.4902C47.9518 23.8327 48.2708 23.263 48.6875 22.7812C49.1107 22.293 49.625 21.9154 50.2305 21.6484C50.8424 21.375 51.5326 21.2383 52.3008 21.2383C53.0755 21.2383 53.7656 21.375 54.3711 21.6484C54.9831 21.9154 55.5007 22.293 55.9238 22.7812C56.347 23.263 56.6693 23.8327 56.8906 24.4902C57.112 25.1413 57.2227 25.8477 57.2227 26.6094V26.834C57.2227 27.5957 57.112 28.3021 56.8906 28.9531C56.6693 29.6042 56.347 30.1738 55.9238 30.6621C55.5007 31.1439 54.9863 31.5215 54.3809 31.7949C53.7754 32.0618 53.0885 32.1953 52.3203 32.1953C51.5456 32.1953 50.8522 32.0618 50.2402 31.7949C49.6348 31.5215 49.1204 31.1439 48.6973 30.6621C48.2741 30.1738 47.9518 29.6042 47.7305 28.9531C47.5091 28.3021 47.3984 27.5957 47.3984 26.834ZM49.752 26.6094V26.834C49.752 27.3092 49.8008 27.7585 49.8984 28.1816C49.9961 28.6048 50.1491 28.9759 50.3574 29.2949C50.5658 29.6139 50.8327 29.8646 51.1582 30.0469C51.4837 30.2292 51.8711 30.3203 52.3203 30.3203C52.7565 30.3203 53.1341 30.2292 53.4531 30.0469C53.7786 29.8646 54.0456 29.6139 54.2539 29.2949C54.4622 28.9759 54.6152 28.6048 54.7129 28.1816C54.8171 27.7585 54.8691 27.3092 54.8691 26.834V26.6094C54.8691 26.1406 54.8171 25.6979 54.7129 25.2812C54.6152 24.8581 54.459 24.4837 54.2441 24.1582C54.0358 23.8327 53.7689 23.5788 53.4434 23.3965C53.1243 23.2077 52.7435 23.1133 52.3008 23.1133C51.8581 23.1133 51.474 23.2077 51.1484 23.3965C50.8294 23.5788 50.5658 23.8327 50.3574 24.1582C50.1491 24.4837 49.9961 24.8581 49.8984 25.2812C49.8008 25.6979 49.752 26.1406 49.752 26.6094ZM61.7148 17V32H59.3516V17H61.7148ZM67.3594 30.8477L70.2305 21.4336H72.75L68.5117 33.6113C68.4141 33.8717 68.2871 34.1549 68.1309 34.4609C67.9746 34.7669 67.7695 35.0566 67.5156 35.3301C67.2682 35.61 66.959 35.8346 66.5879 36.0039C66.2168 36.1797 65.7676 36.2676 65.2402 36.2676C65.0319 36.2676 64.8301 36.248 64.6348 36.209C64.446 36.1764 64.2669 36.1406 64.0977 36.1016L64.0879 34.3047C64.153 34.3112 64.2311 34.3177 64.3223 34.3242C64.4199 34.3307 64.498 34.334 64.5566 34.334C64.9473 34.334 65.2728 34.2852 65.5332 34.1875C65.7936 34.0964 66.0052 33.9466 66.168 33.7383C66.3372 33.5299 66.4805 33.25 66.5977 32.8984L67.3594 30.8477ZM65.7383 21.4336L68.248 29.3438L68.668 31.8242L67.0371 32.2441L63.1992 21.4336H65.7383ZM80.7285 21.4336H82.8672V31.707C82.8672 32.6576 82.6654 33.4648 82.2617 34.1289C81.8581 34.793 81.2949 35.2975 80.5723 35.6426C79.8496 35.9941 79.013 36.1699 78.0625 36.1699C77.6589 36.1699 77.2096 36.1113 76.7148 35.9941C76.2266 35.877 75.7513 35.6882 75.2891 35.4277C74.8333 35.1738 74.4525 34.8385 74.1465 34.4219L75.25 33.0352C75.6276 33.4844 76.0443 33.8132 76.5 34.0215C76.9557 34.2298 77.4342 34.334 77.9355 34.334C78.4759 34.334 78.9349 34.2331 79.3125 34.0312C79.6966 33.8359 79.9928 33.5462 80.2012 33.1621C80.4095 32.778 80.5137 32.3092 80.5137 31.7559V23.8262L80.7285 21.4336ZM73.5508 26.834V26.6289C73.5508 25.8281 73.6484 25.099 73.8438 24.4414C74.0391 23.7773 74.319 23.2077 74.6836 22.7324C75.0482 22.2507 75.4909 21.8828 76.0117 21.6289C76.5326 21.3685 77.1217 21.2383 77.7793 21.2383C78.4629 21.2383 79.0456 21.362 79.5273 21.6094C80.0156 21.8568 80.4225 22.2116 80.748 22.6738C81.0736 23.1296 81.3275 23.6764 81.5098 24.3145C81.6986 24.946 81.8385 25.6491 81.9297 26.4238V27.0781C81.8451 27.8333 81.7018 28.5234 81.5 29.1484C81.2982 29.7734 81.0312 30.3138 80.6992 30.7695C80.3672 31.2253 79.957 31.5768 79.4688 31.8242C78.987 32.0716 78.4173 32.1953 77.7598 32.1953C77.1152 32.1953 76.5326 32.0618 76.0117 31.7949C75.4974 31.528 75.0547 31.1536 74.6836 30.6719C74.319 30.1901 74.0391 29.6237 73.8438 28.9727C73.6484 28.3151 73.5508 27.6022 73.5508 26.834ZM75.9043 26.6289V26.834C75.9043 27.3158 75.9499 27.765 76.041 28.1816C76.1387 28.5983 76.2852 28.9661 76.4805 29.2852C76.6823 29.5977 76.9362 29.8451 77.2422 30.0273C77.5547 30.2031 77.9225 30.291 78.3457 30.291C78.8991 30.291 79.3516 30.1738 79.7031 29.9395C80.0612 29.7051 80.3346 29.3893 80.5234 28.9922C80.7188 28.5885 80.8555 28.1393 80.9336 27.6445V25.877C80.8945 25.4928 80.8132 25.1348 80.6895 24.8027C80.5723 24.4707 80.4128 24.181 80.2109 23.9336C80.0091 23.6797 79.7552 23.4844 79.4492 23.3477C79.1432 23.2044 78.7819 23.1328 78.3652 23.1328C77.9421 23.1328 77.5742 23.224 77.2617 23.4062C76.9492 23.5885 76.6921 23.8392 76.4902 24.1582C76.2949 24.4772 76.1484 24.8483 76.0508 25.2715C75.9531 25.6947 75.9043 26.1471 75.9043 26.6289ZM84.8594 26.834V26.6094C84.8594 25.8477 84.9701 25.1413 85.1914 24.4902C85.4128 23.8327 85.7318 23.263 86.1484 22.7812C86.5716 22.293 87.0859 21.9154 87.6914 21.6484C88.3034 21.375 88.9935 21.2383 89.7617 21.2383C90.5365 21.2383 91.2266 21.375 91.832 21.6484C92.444 21.9154 92.9616 22.293 93.3848 22.7812C93.8079 23.263 94.1302 23.8327 94.3516 24.4902C94.5729 25.1413 94.6836 25.8477 94.6836 26.6094V26.834C94.6836 27.5957 94.5729 28.3021 94.3516 28.9531C94.1302 29.6042 93.8079 30.1738 93.3848 30.6621C92.9616 31.1439 92.4473 31.5215 91.8418 31.7949C91.2363 32.0618 90.5495 32.1953 89.7812 32.1953C89.0065 32.1953 88.3132 32.0618 87.7012 31.7949C87.0957 31.5215 86.5814 31.1439 86.1582 30.6621C85.735 30.1738 85.4128 29.6042 85.1914 28.9531C84.9701 28.3021 84.8594 27.5957 84.8594 26.834ZM87.2129 26.6094V26.834C87.2129 27.3092 87.2617 27.7585 87.3594 28.1816C87.457 28.6048 87.61 28.9759 87.8184 29.2949C88.0267 29.6139 88.2936 29.8646 88.6191 30.0469C88.9447 30.2292 89.332 30.3203 89.7812 30.3203C90.2174 30.3203 90.5951 30.2292 90.9141 30.0469C91.2396 29.8646 91.5065 29.6139 91.7148 29.2949C91.9232 28.9759 92.0762 28.6048 92.1738 28.1816C92.278 27.7585 92.3301 27.3092 92.3301 26.834V26.6094C92.3301 26.1406 92.278 25.6979 92.1738 25.2812C92.0762 24.8581 91.9199 24.4837 91.7051 24.1582C91.4967 23.8327 91.2298 23.5788 90.9043 23.3965C90.5853 23.2077 90.2044 23.1133 89.7617 23.1133C89.319 23.1133 88.9349 23.2077 88.6094 23.3965C88.2904 23.5788 88.0267 23.8327 87.8184 24.1582C87.61 24.4837 87.457 24.8581 87.3594 25.2812C87.2617 25.6979 87.2129 26.1406 87.2129 26.6094ZM98.9902 23.6895V32H96.6367V21.4336H98.8535L98.9902 23.6895ZM98.5703 26.3262L97.8086 26.3164C97.8151 25.5677 97.9193 24.8809 98.1211 24.2559C98.3294 23.6309 98.6159 23.0938 98.9805 22.6445C99.3516 22.1953 99.7943 21.8503 100.309 21.6094C100.823 21.362 101.396 21.2383 102.027 21.2383C102.535 21.2383 102.994 21.3099 103.404 21.4531C103.821 21.5898 104.176 21.8145 104.469 22.127C104.768 22.4395 104.996 22.8464 105.152 23.3477C105.309 23.8424 105.387 24.4512 105.387 25.1738V32H103.023V25.1641C103.023 24.6562 102.949 24.2559 102.799 23.9629C102.656 23.6634 102.444 23.4518 102.164 23.3281C101.891 23.1979 101.549 23.1328 101.139 23.1328C100.735 23.1328 100.374 23.2174 100.055 23.3867C99.7357 23.556 99.4655 23.7871 99.2441 24.0801C99.0293 24.373 98.8633 24.7116 98.7461 25.0957C98.6289 25.4798 98.5703 25.89 98.5703 26.3262Z" fill="white"/>
<path d="M2.73828 4.87891H1.25781V4.10156H2.73828C2.99609 4.10156 3.20443 4.0599 3.36328 3.97656C3.52214 3.89323 3.63802 3.77865 3.71094 3.63281C3.78646 3.48438 3.82422 3.3151 3.82422 3.125C3.82422 2.94531 3.78646 2.77734 3.71094 2.62109C3.63802 2.46224 3.52214 2.33464 3.36328 2.23828C3.20443 2.14193 2.99609 2.09375 2.73828 2.09375H1.55859V7H0.578125V1.3125H2.73828C3.17839 1.3125 3.55208 1.39062 3.85938 1.54688C4.16927 1.70052 4.40495 1.91406 4.56641 2.1875C4.72786 2.45833 4.80859 2.76823 4.80859 3.11719C4.80859 3.48438 4.72786 3.79948 4.56641 4.0625C4.40495 4.32552 4.16927 4.52734 3.85938 4.66797C3.55208 4.80859 3.17839 4.87891 2.73828 4.87891ZM5.35938 4.93359V4.84375C5.35938 4.53906 5.40365 4.25651 5.49219 3.99609C5.58073 3.73307 5.70833 3.50521 5.875 3.3125C6.04427 3.11719 6.25 2.96615 6.49219 2.85938C6.73698 2.75 7.01302 2.69531 7.32031 2.69531C7.63021 2.69531 7.90625 2.75 8.14844 2.85938C8.39323 2.96615 8.60026 3.11719 8.76953 3.3125C8.9388 3.50521 9.06771 3.73307 9.15625 3.99609C9.24479 4.25651 9.28906 4.53906 9.28906 4.84375V4.93359C9.28906 5.23828 9.24479 5.52083 9.15625 5.78125C9.06771 6.04167 8.9388 6.26953 8.76953 6.46484C8.60026 6.65755 8.39453 6.80859 8.15234 6.91797C7.91016 7.02474 7.63542 7.07812 7.32812 7.07812C7.01823 7.07812 6.74089 7.02474 6.49609 6.91797C6.25391 6.80859 6.04818 6.65755 5.87891 6.46484C5.70964 6.26953 5.58073 6.04167 5.49219 5.78125C5.40365 5.52083 5.35938 5.23828 5.35938 4.93359ZM6.30078 4.84375V4.93359C6.30078 5.1237 6.32031 5.30339 6.35938 5.47266C6.39844 5.64193 6.45964 5.79036 6.54297 5.91797C6.6263 6.04557 6.73307 6.14583 6.86328 6.21875C6.99349 6.29167 7.14844 6.32812 7.32812 6.32812C7.5026 6.32812 7.65365 6.29167 7.78125 6.21875C7.91146 6.14583 8.01823 6.04557 8.10156 5.91797C8.1849 5.79036 8.24609 5.64193 8.28516 5.47266C8.32682 5.30339 8.34766 5.1237 8.34766 4.93359V4.84375C8.34766 4.65625 8.32682 4.47917 8.28516 4.3125C8.24609 4.14323 8.18359 3.99349 8.09766 3.86328C8.01432 3.73307 7.90755 3.63151 7.77734 3.55859C7.64974 3.48307 7.4974 3.44531 7.32031 3.44531C7.14323 3.44531 6.98958 3.48307 6.85938 3.55859C6.73177 3.63151 6.6263 3.73307 6.54297 3.86328C6.45964 3.99349 6.39844 4.14323 6.35938 4.3125C6.32031 4.47917 6.30078 4.65625 6.30078 4.84375ZM11.2266 6.0625L12.2031 2.77344H12.8047L12.6406 3.75781L11.6562 7H11.1172L11.2266 6.0625ZM10.6523 2.77344L11.4141 6.07812L11.4766 7H10.875L9.73047 2.77344H10.6523ZM13.7188 6.03906L14.457 2.77344H15.375L14.2344 7H13.6328L13.7188 6.03906ZM12.9062 2.77344L13.8711 6.02344L13.9922 7H13.4531L12.457 3.75391L12.293 2.77344H12.9062ZM17.8789 7.07812C17.5664 7.07812 17.2839 7.02734 17.0312 6.92578C16.7812 6.82161 16.5677 6.67708 16.3906 6.49219C16.2161 6.30729 16.082 6.08984 15.9883 5.83984C15.8945 5.58984 15.8477 5.32031 15.8477 5.03125V4.875C15.8477 4.54427 15.8958 4.24479 15.9922 3.97656C16.0885 3.70833 16.2227 3.47917 16.3945 3.28906C16.5664 3.09635 16.7695 2.94922 17.0039 2.84766C17.2383 2.74609 17.4922 2.69531 17.7656 2.69531C18.0677 2.69531 18.332 2.74609 18.5586 2.84766C18.7852 2.94922 18.9727 3.09245 19.1211 3.27734C19.2721 3.45964 19.3841 3.67708 19.457 3.92969C19.5326 4.18229 19.5703 4.46094 19.5703 4.76562V5.16797H16.3047V4.49219H18.6406V4.41797C18.6354 4.2487 18.6016 4.08984 18.5391 3.94141C18.4792 3.79297 18.3867 3.67318 18.2617 3.58203C18.1367 3.49089 17.9701 3.44531 17.7617 3.44531C17.6055 3.44531 17.4661 3.47917 17.3438 3.54688C17.224 3.61198 17.1237 3.70703 17.043 3.83203C16.9622 3.95703 16.8997 4.10807 16.8555 4.28516C16.8138 4.45964 16.793 4.65625 16.793 4.875V5.03125C16.793 5.21615 16.8177 5.38802 16.8672 5.54688C16.9193 5.70312 16.9948 5.83984 17.0938 5.95703C17.1927 6.07422 17.3125 6.16667 17.4531 6.23438C17.5938 6.29948 17.7539 6.33203 17.9336 6.33203C18.1602 6.33203 18.362 6.28646 18.5391 6.19531C18.7161 6.10417 18.8698 5.97526 19 5.80859L19.4961 6.28906C19.4049 6.42188 19.2865 6.54948 19.1406 6.67188C18.9948 6.79167 18.8164 6.88932 18.6055 6.96484C18.3971 7.04036 18.1549 7.07812 17.8789 7.07812ZM21.25 3.57812V7H20.3086V2.77344H21.207L21.25 3.57812ZM22.543 2.74609L22.5352 3.62109C22.4779 3.61068 22.4154 3.60286 22.3477 3.59766C22.2826 3.59245 22.2174 3.58984 22.1523 3.58984C21.9909 3.58984 21.849 3.61328 21.7266 3.66016C21.6042 3.70443 21.5013 3.76953 21.418 3.85547C21.3372 3.9388 21.2747 4.04036 21.2305 4.16016C21.1862 4.27995 21.1602 4.41406 21.1523 4.5625L20.9375 4.57812C20.9375 4.3125 20.9635 4.06641 21.0156 3.83984C21.0677 3.61328 21.1458 3.41406 21.25 3.24219C21.3568 3.07031 21.4896 2.9362 21.6484 2.83984C21.8099 2.74349 21.9961 2.69531 22.207 2.69531C22.2643 2.69531 22.3255 2.70052 22.3906 2.71094C22.4583 2.72135 22.5091 2.73307 22.543 2.74609ZM24.918 7.07812C24.6055 7.07812 24.3229 7.02734 24.0703 6.92578C23.8203 6.82161 23.6068 6.67708 23.4297 6.49219C23.2552 6.30729 23.1211 6.08984 23.0273 5.83984C22.9336 5.58984 22.8867 5.32031 22.8867 5.03125V4.875C22.8867 4.54427 22.9349 4.24479 23.0312 3.97656C23.1276 3.70833 23.2617 3.47917 23.4336 3.28906C23.6055 3.09635 23.8086 2.94922 24.043 2.84766C24.2773 2.74609 24.5312 2.69531 24.8047 2.69531C25.1068 2.69531 25.3711 2.74609 25.5977 2.84766C25.8242 2.94922 26.0117 3.09245 26.1602 3.27734C26.3112 3.45964 26.4232 3.67708 26.4961 3.92969C26.5716 4.18229 26.6094 4.46094 26.6094 4.76562V5.16797H23.3438V4.49219H25.6797V4.41797C25.6745 4.2487 25.6406 4.08984 25.5781 3.94141C25.5182 3.79297 25.4258 3.67318 25.3008 3.58203C25.1758 3.49089 25.0091 3.44531 24.8008 3.44531C24.6445 3.44531 24.5052 3.47917 24.3828 3.54688C24.263 3.61198 24.1628 3.70703 24.082 3.83203C24.0013 3.95703 23.9388 4.10807 23.8945 4.28516C23.8529 4.45964 23.832 4.65625 23.832 4.875V5.03125C23.832 5.21615 23.8568 5.38802 23.9062 5.54688C23.9583 5.70312 24.0339 5.83984 24.1328 5.95703C24.2318 6.07422 24.3516 6.16667 24.4922 6.23438C24.6328 6.29948 24.793 6.33203 24.9727 6.33203C25.1992 6.33203 25.401 6.28646 25.5781 6.19531C25.7552 6.10417 25.9089 5.97526 26.0391 5.80859L26.5352 6.28906C26.444 6.42188 26.3255 6.54948 26.1797 6.67188C26.0339 6.79167 25.8555 6.88932 25.6445 6.96484C25.4362 7.04036 25.194 7.07812 24.918 7.07812ZM29.9219 6.125V1H30.8672V7H30.0117L29.9219 6.125ZM27.1719 4.93359V4.85156C27.1719 4.53125 27.2096 4.23958 27.2852 3.97656C27.3607 3.71094 27.4701 3.48307 27.6133 3.29297C27.7565 3.10026 27.931 2.95312 28.1367 2.85156C28.3424 2.7474 28.5742 2.69531 28.832 2.69531C29.0872 2.69531 29.3112 2.74479 29.5039 2.84375C29.6966 2.94271 29.8607 3.08464 29.9961 3.26953C30.1315 3.45182 30.2396 3.67057 30.3203 3.92578C30.401 4.17839 30.4583 4.45964 30.4922 4.76953V5.03125C30.4583 5.33333 30.401 5.60938 30.3203 5.85938C30.2396 6.10938 30.1315 6.32552 29.9961 6.50781C29.8607 6.6901 29.6953 6.83073 29.5 6.92969C29.3073 7.02865 29.082 7.07812 28.8242 7.07812C28.569 7.07812 28.3385 7.02474 28.1328 6.91797C27.9297 6.8112 27.7565 6.66146 27.6133 6.46875C27.4701 6.27604 27.3607 6.04948 27.2852 5.78906C27.2096 5.52604 27.1719 5.24089 27.1719 4.93359ZM28.1133 4.85156V4.93359C28.1133 5.1263 28.1302 5.30599 28.1641 5.47266C28.2005 5.63932 28.2565 5.78646 28.332 5.91406C28.4076 6.03906 28.5052 6.13802 28.625 6.21094C28.7474 6.28125 28.8932 6.31641 29.0625 6.31641C29.276 6.31641 29.4518 6.26953 29.5898 6.17578C29.7279 6.08203 29.8359 5.95573 29.9141 5.79688C29.9948 5.63542 30.0495 5.45573 30.0781 5.25781V4.55078C30.0625 4.39714 30.0299 4.25391 29.9805 4.12109C29.9336 3.98828 29.8698 3.8724 29.7891 3.77344C29.7083 3.67188 29.6081 3.59375 29.4883 3.53906C29.3711 3.48177 29.2318 3.45312 29.0703 3.45312C28.8984 3.45312 28.7526 3.48958 28.6328 3.5625C28.513 3.63542 28.4141 3.73568 28.3359 3.86328C28.2604 3.99089 28.2044 4.13932 28.168 4.30859C28.1315 4.47786 28.1133 4.65885 28.1133 4.85156ZM36.0703 4.42969H34.6211L34.6133 3.71484H35.8789C36.0924 3.71484 36.2734 3.68359 36.4219 3.62109C36.5729 3.55599 36.6875 3.46354 36.7656 3.34375C36.8438 3.22135 36.8828 3.07422 36.8828 2.90234C36.8828 2.71224 36.8464 2.55729 36.7734 2.4375C36.7005 2.31771 36.5885 2.23047 36.4375 2.17578C36.2891 2.12109 36.099 2.09375 35.8672 2.09375H34.918V7H33.9375V1.3125H35.8672C36.1797 1.3125 36.4583 1.34245 36.7031 1.40234C36.9505 1.46224 37.1602 1.55599 37.332 1.68359C37.5065 1.80859 37.638 1.96745 37.7266 2.16016C37.8177 2.35286 37.8633 2.58203 37.8633 2.84766C37.8633 3.08203 37.8073 3.29688 37.6953 3.49219C37.5833 3.6849 37.418 3.84245 37.1992 3.96484C36.9805 4.08724 36.7083 4.16016 36.3828 4.18359L36.0703 4.42969ZM36.0273 7H34.3125L34.7539 6.22266H36.0273C36.2487 6.22266 36.4336 6.1862 36.582 6.11328C36.7305 6.03776 36.8411 5.9349 36.9141 5.80469C36.9896 5.67188 37.0273 5.51693 37.0273 5.33984C37.0273 5.15495 36.9948 4.99479 36.9297 4.85938C36.8646 4.72135 36.7617 4.61589 36.6211 4.54297C36.4805 4.46745 36.2969 4.42969 36.0703 4.42969H34.9688L34.9766 3.71484H36.4102L36.6328 3.98438C36.9453 3.99479 37.2018 4.0638 37.4023 4.19141C37.6055 4.31901 37.7565 4.48438 37.8555 4.6875C37.9544 4.89062 38.0039 5.10938 38.0039 5.34375C38.0039 5.70573 37.9245 6.00911 37.7656 6.25391C37.6094 6.4987 37.3841 6.6849 37.0898 6.8125C36.7956 6.9375 36.4414 7 36.0273 7ZM40.125 6.53906L41.2734 2.77344H42.2812L40.5859 7.64453C40.5469 7.7487 40.4961 7.86198 40.4336 7.98438C40.3711 8.10677 40.2891 8.22266 40.1875 8.33203C40.0885 8.44401 39.9648 8.53385 39.8164 8.60156C39.668 8.67188 39.4883 8.70703 39.2773 8.70703C39.194 8.70703 39.1133 8.69922 39.0352 8.68359C38.9596 8.67057 38.888 8.65625 38.8203 8.64062L38.8164 7.92188C38.8424 7.92448 38.8737 7.92708 38.9102 7.92969C38.9492 7.93229 38.9805 7.93359 39.0039 7.93359C39.1602 7.93359 39.2904 7.91406 39.3945 7.875C39.4987 7.83854 39.5833 7.77865 39.6484 7.69531C39.7161 7.61198 39.7734 7.5 39.8203 7.35938L40.125 6.53906ZM39.4766 2.77344L40.4805 5.9375L40.6484 6.92969L39.9961 7.09766L38.4609 2.77344H39.4766Z" fill="white"/>
</svg>
