<svg width="12" height="12" viewBox="0 0 12 12" fill="none" xmlns="http://www.w3.org/2000/svg">
<path d="M8.22588 7.16116C8.23953 6.19524 7.2763 5.51604 6.03331 5.38208C5.30321 5.3057 4.90631 5.09066 4.90631 4.59242C4.90631 4.11651 5.37485 3.76281 5.89684 3.79219C6.84529 3.84741 6.98289 4.45376 6.98289 4.82391C6.98289 4.82391 8.0155 4.83566 8.0155 4.82391C8.0155 3.92262 7.51284 3.12944 6.48592 2.89559V1.82861H5.46242V2.85799C4.40138 3.0319 3.81344 3.91557 3.8032 4.66763C3.78842 5.66293 4.59358 6.21639 5.92982 6.41616C6.76 6.53367 7.1296 6.86152 7.12164 7.2963C7.11481 7.76633 6.81799 8.21639 5.9628 8.21639C5.15082 8.21639 4.81761 7.69818 4.81761 7.15176H3.70312C3.70312 8.13179 4.21033 8.85094 5.45673 9.0178V10.0448H6.48024V9.02838C7.92679 8.83919 8.21679 7.7158 8.22588 7.16116Z" fill="white"/>
<path d="M1.0432 5.99995C1.04322 4.92693 1.36936 3.88102 1.97559 3.00983C2.58181 2.13864 3.43751 1.48616 4.4219 1.14449V0.0175781C3.15186 0.375544 2.03097 1.15509 1.23192 2.23612C0.432871 3.31715 0 4.63968 0 5.99995C0 7.36022 0.432871 8.68275 1.23192 9.76378C2.03097 10.8448 3.15186 11.6244 4.4219 11.9823V10.8554C3.43751 10.5137 2.58181 9.86127 1.97559 8.99007C1.36936 8.11888 1.04322 7.07297 1.0432 5.99995Z" fill="white"/>
<path d="M7.52051 0V1.12338C8.51863 1.45642 9.38888 2.10787 10.0062 2.98409C10.6234 3.86032 10.956 4.91621 10.956 6C10.956 7.08379 10.6234 8.13968 10.0062 9.01591C9.38888 9.89213 8.51863 10.5436 7.52051 10.8766V12C8.80381 11.6519 9.93937 10.8743 10.7497 9.78882C11.5601 8.70329 11.9996 7.37095 11.9996 6C11.9996 4.62905 11.5601 3.29671 10.7497 2.21118C9.93937 1.12566 8.80381 0.348095 7.52051 0Z" fill="white"/>
</svg>
