<svg width="18" height="18" viewBox="0 0 18 18" fill="none" xmlns="http://www.w3.org/2000/svg">
<path d="M12.3388 10.7415C12.3593 9.29262 10.9144 8.27382 9.04996 8.07288C7.95481 7.9583 7.35947 7.63574 7.35947 6.88839C7.35947 6.17452 8.06228 5.64397 8.84526 5.68803C10.2679 5.77088 10.4743 6.6804 10.4743 7.23563C10.4743 7.23563 12.0232 7.25325 12.0232 7.23563C12.0232 5.88369 11.2693 4.69391 9.72889 4.34315V2.74268H8.19363V4.28674C6.60208 4.54761 5.72015 5.87311 5.7048 7.00119C5.68263 8.49414 6.89036 9.32434 8.89473 9.62399C10.14 9.80025 10.6944 10.292 10.6825 10.9442C10.6722 11.6493 10.227 12.3243 8.9442 12.3243C7.72623 12.3243 7.22641 11.547 7.22641 10.7274H5.55469C5.55469 12.1974 6.31549 13.2762 8.1851 13.5265V15.067H9.72036V13.5423C11.8902 13.2585 12.3252 11.5735 12.3388 10.7415Z" fill="#27BC94"/>
<path d="M1.56479 8.99993C1.56483 7.3904 2.05405 5.82153 2.96338 4.51474C3.87272 3.20795 5.15626 2.22924 6.63285 1.71673V0.0263672C4.72779 0.563315 3.04646 1.73264 1.84788 3.35419C0.649306 4.97573 0 6.95953 0 8.99993C0 11.0403 0.649306 13.0241 1.84788 14.6457C3.04646 16.2672 4.72779 17.4365 6.63285 17.9735V16.2831C5.15626 15.7706 3.87272 14.7919 2.96338 13.4851C2.05405 12.1783 1.56483 10.6094 1.56479 8.99993V8.99993Z" fill="#27BC94"/>
<path d="M11.2822 0V1.68508C12.7794 2.18463 14.0848 3.1618 15.0107 4.47614C15.9366 5.79048 16.4354 7.37431 16.4354 9C16.4354 10.6257 15.9366 12.2095 15.0107 13.5239C14.0848 14.8382 12.7794 15.8154 11.2822 16.3149V18C13.2072 17.4779 14.9105 16.3115 16.1261 14.6832C17.3416 13.0549 18.0009 11.0564 18.0009 9C18.0009 6.94357 17.3416 4.94507 16.1261 3.31677C14.9105 1.68848 13.2072 0.522142 11.2822 0V0Z" fill="#27BC94"/>
</svg>
