<svg width="172" height="152" viewBox="0 0 172 152" fill="none" xmlns="http://www.w3.org/2000/svg">
<path d="M112.297 89.2762C112.459 78.2306 101.077 70.4638 86.3899 68.9319C77.763 68.0584 73.0733 65.5994 73.0733 59.9019C73.0733 54.4597 78.6096 50.415 84.7774 50.7509C95.9843 51.3825 97.6102 58.3163 97.6102 62.5491C97.6102 62.5491 109.811 62.6834 109.811 62.5491C109.811 52.2425 103.872 43.1722 91.738 40.4981V28.2969H79.6443V40.0681C67.1071 42.0569 60.1599 52.1619 60.0389 60.7619C59.8643 72.1434 69.378 78.4725 85.1671 80.7569C94.9765 82.1006 99.3436 85.8497 99.2496 90.8216C99.1689 96.1966 95.6618 101.343 85.5568 101.343C75.9624 101.343 72.0252 95.4172 72.0252 89.1688H58.8564C58.8564 100.376 64.8496 108.599 79.5771 110.507V122.252H91.6708V110.628C108.763 108.465 112.19 95.6187 112.297 89.2762Z" fill="white" fill-opacity="0.03"/>
<path d="M27.426 76.0002C27.4263 63.7299 31.28 51.7695 38.4432 41.8072C45.6063 31.8448 55.7172 24.3835 67.3488 20.4764V7.58984C52.342 11.6833 39.0976 20.5977 29.656 32.9596C20.2144 45.3215 15.0996 60.4451 15.0996 76.0002C15.0996 91.5552 20.2144 106.679 29.656 119.041C39.0976 131.403 52.342 140.317 67.3488 144.41V131.524C55.7172 127.617 45.6063 120.155 38.4432 110.193C31.28 100.231 27.4263 88.2704 27.426 76.0002Z" fill="white" fill-opacity="0.03"/>
<path d="M103.966 7.38818V20.2344C115.76 24.0428 126.042 31.4923 133.336 41.5122C140.63 51.5322 144.559 63.6066 144.559 76.0001C144.559 88.3936 140.63 100.468 133.336 110.488C126.042 120.508 115.76 127.957 103.966 131.766V144.612C119.129 140.631 132.547 131.74 142.122 119.326C151.698 106.913 156.891 91.6774 156.891 76.0001C156.891 60.3228 151.698 45.0871 142.122 32.6738C132.547 20.2604 119.129 11.3688 103.966 7.38818Z" fill="white" fill-opacity="0.03"/>
</svg>
